<?xml version="1.0" encoding="utf-8"?>
<!-- Generator: Adobe Illustrator 19.0.0, SVG Export Plug-In . SVG Version: 6.00 Build 0)  -->
<svg version="1.1" id="Layer_1" xmlns="http://www.w3.org/2000/svg" xmlns:xlink="http://www.w3.org/1999/xlink" x="0px" y="0px"
	 viewBox="0 0 100 100" style="enable-background:new 0 0 100 100;" xml:space="preserve">
<style type="text/css">
	.st0{fill-rule:evenodd;clip-rule:evenodd;fill:#005CA3;}
</style>
<path id="XMLID_2_" class="st0" d="M61.2,96.2c0.7-4.7,1-10.9,2.7-25.4c3.4-28.1,20.4-35.6,20.4-35.6c-51.6,10-46.8,49.9-44.2,61.5
	C19.4,92.2,3.9,73.3,3.9,50.6c0-26.1,20.5-47.2,45.8-47.2s45.8,21.1,45.8,47.2C95.5,72.5,80.9,90.9,61.2,96.2z M37.8,72.6
	c0,0,2.3-12.8,11.4-22.1c0,0-11.8-15.8-33.7-15C15.5,35.4,33.2,50.3,37.8,72.6z M50.2,21.5c-5.8,0-10.5,4.8-10.5,10.8
	c0,6,4.7,10.8,10.5,10.8c5.8,0,10.5-4.8,10.5-10.8C60.7,26.3,56,21.5,50.2,21.5z"/>
</svg>
