<?xml version="1.0" encoding="utf-8"?>
<!-- Generator: Adobe Illustrator 19.0.0, SVG Export Plug-In . SVG Version: 6.00 Build 0)  -->
<svg version="1.1" id="Layer_1" xmlns="http://www.w3.org/2000/svg" xmlns:xlink="http://www.w3.org/1999/xlink" x="0px" y="0px"
	 viewBox="0 0 100 100" style="enable-background:new 0 0 100 100;" xml:space="preserve">
<style type="text/css">
	.st0{fill-rule:evenodd;clip-rule:evenodd;fill:#FFFFFF;}
</style>
<path class="st0" d="M63.6,62.4c-1.4,11.6-1.8,17.7-2.3,22.1c-3.4,0.9-7,1.4-10.8,1.4c-3.6,0-7.1-0.5-10.5-1.4
	c-2.3-13.8-3-47.5,43.3-56.4C83.3,28.1,66.9,35.4,63.6,62.4z M38.3,64.1c-4.4-21.4-21.6-35.7-21.6-35.7
	c21.1-0.7,32.6,14.5,32.6,14.5C40.5,51.8,38.3,64.1,38.3,64.1z M50.3,35.8c-5.6,0-10.2-4.7-10.2-10.4c0-5.8,4.6-10.4,10.2-10.4
	c5.6,0,10.2,4.7,10.2,10.4C60.5,31.1,55.9,35.8,50.3,35.8z"/>
</svg>
